<svg xmlns="http://www.w3.org/2000/svg" viewBox="0 0 25 10">
  <path d="M 2 0 Q 0 0 0 2 L 0 8 Q 0 10 2 10 L 5 10 Q 7 10 7 8 L 7 7 Q 7 5 5 5 Q
7 5 7 3 L 7 2 Q 7 0 5 0 Z M 2 3 A 1 1 0 0 1 5 3 Q 2 5 2 3 Z M 5 7 A 1
1 0 0 1 2 7 Q 5 5 5 7 Z M 11 0 Q 9 0 9 2 L 9 8 Q 9 10 11 10 L 14 10 Q
16 10 16 8 L 16 7 Q 16 5 14 5 Q 16 5 16 3 L 16 2 Q 16 0 14 0 Z M 11 3
A 1 1 0 0 1 14 3 Q 11 5 11 3 Z M 14 7 A 1 1 0 0 1 11 7 Q 14 5 14 7 Z M
20 0 Q 18 0 18 2 L 18 8 Q 18 10 20 10 L 23 10 Q 25 10 25 8 L 25 7 C 25
6 23 6 23 7 A 1 1 0 0 1 20 7 L 20 3 A 1 1 0 0 1 23 3 C 23 4 25 4 25 3
L 25 2 Q 25 0 23 0 Z" fill="#9c27b0"/>
</svg>