<svg xmlns="http://www.w3.org/2000/svg" viewBox="0 0 25 10">
  <path d="M 2 0 Q 0 0 0 2 L 0 8 Q 0 10 2 10 L 5 10 Q 7 10 7 8 L 7 7 C 7 6 5 6 5
7 A 1 1 0 0 1 2 7 L 2 3 A 1 1 0 0 1 5 3 C 5 4 7 4 7 3 L 7 2 Q 7 0 5 0
Z M 11 0 Q 9 0 9 2 L 9 8 Q 9 10 10 10 C 11 10 11 10 11 9 L 11 4 L 14
10 Q 16 10 16 8 L 16 2 Q 16 0 15 0 C 14 0 14 0 14 1 L 14 6 Z M 20 0 C
19 0 18 0 18 1 Q 18 2 18 2 L 18 8 Q 18 10 19 10 C 20 10 20 10 20 9 L
20 4 L 23 10 Q 25 10 25 8 L 25 2 Q 25 0 24 0 C 23 0 23 0 23 1 L 23 6 Z" fill="#9c27b0"/>
</svg>